<svg xmlns="http://www.w3.org/2000/svg" viewBox="0 0 1000 1000"><defs><style>.cls-1{fill:#fff;}.cls-2{fill:#057333;}.cls-3{fill:#010101;}.cls-4{fill:#4262ab;}.cls-5{fill:#e84233;}</style></defs><title>logo-arvb-2019-color-bg-white-circle</title><g id="Calque_2" data-name="Calque 2"><g id="logo"><g id="logo-arvb-2019-color-bg-white-circle"><circle class="cls-1" cx="500" cy="500" r="500"/><circle class="cls-2" cx="250" cy="501" r="66.67"/><path class="cls-3" d="M466.67,88.33V911.67A3.34,3.34,0,0,0,470,915h60a3.34,3.34,0,0,0,3.33-3.33V535.83a3.34,3.34,0,0,1,3.34-3.33H843.15a3.34,3.34,0,0,1,3.32,3.67A345.78,345.78,0,0,1,746.32,746.32l-21.22,21.2a3.33,3.33,0,0,0,0,4.71l42.42,42.44a3.33,3.33,0,0,0,4.71,0l21.22-21.22C871.83,715.07,915,610.85,915,500S871.83,284.93,793.45,206.55,610.85,85,500,85H470A3.34,3.34,0,0,0,466.67,88.33ZM533.33,157a3.35,3.35,0,0,1,3.69-3.33C699.3,170.83,828.68,300,846.28,462.15a3.33,3.33,0,0,1-3.33,3.68H536.67a3.34,3.34,0,0,1-3.34-3.33Z"/><polygon class="cls-4" points="250 830.47 316.67 715 183.33 715 250 830.47"/><polygon class="cls-5" points="250 169.26 316.67 284.74 183.33 284.74 250 169.26"/></g></g></g></svg>